<?xml version="1.0" standalone="no"?>
<!DOCTYPE svg PUBLIC "-//W3C//DTD SVG 20010904//EN"
 "http://www.w3.org/TR/2001/REC-SVG-20010904/DTD/svg10.dtd">
<svg version="1.0" xmlns="http://www.w3.org/2000/svg"
 width="512.000000pt" height="512.000000pt" viewBox="0 0 512.000000 512.000000"
 preserveAspectRatio="xMidYMid meet">
<metadata>
Created by potrace 1.14, written by Peter Selinger 2001-2017
</metadata>
<g transform="translate(0.000000,512.000000) scale(0.100000,-0.100000)"
fill="#000000" stroke="none">
<path d="M0 2560 l0 -2560 2560 0 2560 0 0 2560 0 2560 -2560 0 -2560 0 0
-2560z m2783 1435 c300 -80 548 -328 629 -630 16 -62 21 -111 22 -215 0 -118
-3 -149 -28 -245 -66 -256 -232 -579 -467 -910 -73 -103 -360 -447 -378 -453
-8 -3 -192 207 -278 318 -125 161 -356 541 -453 745 -93 195 -150 402 -150
545 0 80 25 215 56 300 101 282 379 514 669 560 84 13 308 4 378 -15z m797
-2750 l0 -145 -1020 0 -1020 0 0 145 0 145 1020 0 1020 0 0 -145z"/>
<path d="M2472 3422 c-117 -42 -194 -143 -200 -263 -8 -128 49 -223 163 -279
70 -34 180 -34 250 0 107 52 165 143 165 260 0 84 -25 146 -82 203 -86 86
-195 115 -296 79z"/>
</g>
</svg>
