<?xml version="1.0" standalone="no"?>
<!DOCTYPE svg PUBLIC "-//W3C//DTD SVG 20010904//EN"
 "http://www.w3.org/TR/2001/REC-SVG-20010904/DTD/svg10.dtd">
<svg version="1.0" xmlns="http://www.w3.org/2000/svg"
 width="512.000000pt" height="512.000000pt" viewBox="0 0 512.000000 512.000000"
 preserveAspectRatio="xMidYMid meet">
<metadata>
Created by potrace 1.11, written by Peter Selinger 2001-2013
</metadata>
<g transform="translate(0.000000,512.000000) scale(0.100000,-0.100000)"
fill="#000000" stroke="none">
<path d="M0 2560 l0 -2560 2560 0 2560 0 0 2560 0 2560 -2560 0 -2560 0 0
-2560z m2822 1645 c487 -73 914 -365 1183 -808 231 -380 287 -913 143 -1357
-158 -490 -578 -910 -1068 -1068 -444 -144 -976 -88 -1357 143 -454 276 -751
720 -813 1220 -18 140 -8 452 19 576 84 388 293 715 622 971 235 183 498 293
794 331 82 11 388 6 477 -8z"/>
<path d="M2445 3890 c-320 -26 -588 -153 -825 -390 -235 -235 -363 -508 -389
-825 -24 -306 45 -591 202 -837 103 -162 290 -340 459 -439 233 -136 515 -197
790 -171 328 31 577 150 819 391 230 231 344 457 385 766 46 345 -43 688 -250
962 -292 387 -718 581 -1191 543z m321 -520 c267 -67 503 -284 588 -540 62
-186 57 -394 -14 -584 -30 -80 -126 -220 -196 -287 -113 -107 -231 -174 -367
-208 -393 -101 -789 80 -967 443 -59 119 -80 215 -80 360 1 253 65 410 240
587 130 131 248 199 404 234 98 21 298 19 392 -5z"/>
</g>
</svg>
