
<svg id="レイヤー_1" data-name="レイヤー 1" xmlns="http://www.w3.org/2000/svg" viewBox="0 0 512 512"><defs><style>.cls-1{fill:#fff;fill-rule:evenodd;}</style></defs><title>アートボード 1</title><polygon class="cls-1" points="244.31 251.28 196.51 155.41 148.71 251.28 244.31 251.28"/><polygon class="cls-1" points="361.31 251.28 313.51 155.41 265.71 251.28 361.31 251.28"/><path class="cls-1" d="M256,0C114.62,0,0,114.62,0,256S114.62,512,256,512,512,397.38,512,256,397.38,0,256,0ZM426.57,382.18l-59-118.4H264l56.36,113.05-10.74,5.35L255,272.75,200.45,382.18l-10.74-5.35,56.36-113H142.48l-59,118.4-10.74-5.35L189.8,142,195,131.65l1.5-3.65,1.62,3.65L203.21,142,255,245.85,306.8,142,312,131.65l1.56-3.6,1.56,3.6L437.31,376.83Z"/></svg>
